<?xml version="1.0" encoding="utf-8"?>
<!DOCTYPE svg PUBLIC "-//W3C//DTD SVG 1.1//EN" "http://www.w3.org/Graphics/SVG/1.1/DTD/svg11.dtd">
<svg version="1.1"  xmlns="http://www.w3.org/2000/svg" xmlns:xlink="http://www.w3.org/1999/xlink" x="0px" y="0px"
     width="100%" viewBox="0 0 160 160" style="fill:rgb(255,255,255);">
    <polygon points="10,40 20,40 20,20 30,20 30,10 50,10 50,0 110,0 110,10 130,10 130,20 140,20 140,40 150,40 150,80 160,80 160,100 150,100 150,110 140,110 140,120 130,120 130,130 120,130 120,140 110,140 110,150 50,150 50,140 40,140 40,130 30,130 30,120 20,120 20,110 10,110 10,100 0,100 0,80 10,80
" style="fill:#000000;"/>
    <!--Skin -->
    <polygon points="10,80 20,80 20,40 140,40 140,80 150,80 150,100 130,100 130,110 130,110 130,120 120,120 120,130 110,130 110,140 50,140 50,130 40,130 40,120 30,120 30,110 30,110 30,100 10,100
" style="fill:#E8CDA2"/>
    <!--Hair-->
    <polygon points="20,40 20,80 30,80 30,70
40,70 40,60 50,60 50,50 110,50
110,60 120,60 120,70 130,70 130,80 140,80 140,40
130,40 130,20 110,20 110,10 50,10 50,20 30,20 30,40
" style="fill:#3D2601"/>
    <polygon points="30,50 30,40 40,40 40,30 50,30 50,20 100,20 100,30 50,30 50,40 40,40 40,50" style="fill:#ffffff"/>
    <!--Eyes -->
    <polygon points="40,80 40,70 50,70 50,60 60,60 60,70 70,70 70,80 60,80 60,70 50,70 50,80" style="fill:#000000;"/>
    <polygon points="90,80 90,70 100,70 100,60 110,60 110,70 120,70 120,80 110,80 110,70 100,70 100,80" style="fill:#000000;"/>
    <!--Mouth -->
    <polygon points="40,110 40,100 120,100 120,110 110,110 110,120 100,120 100,130 60,130 60,120 50,120 50,110" style="fill:#000000;"/>
    <polygon points="60,110 100,110 100,120 60,120" style="fill:#ffffff;"/>
</svg>